<svg width="43" height="42" viewBox="0 0 43 42" fill="none" xmlns="http://www.w3.org/2000/svg">
<g filter="url(#filter0_d_121_54028)">
<path d="M14.7734 14.3281H7.82813C6.07813 14.3281 4.65625 12.9062 4.65625 11.1562V4.21094C4.65625 2.46094 6.07813 1.03906 7.82813 1.03906H14.7734C16.5234 1.03906 17.9453 2.46094 17.9453 4.21094V11.1562C17.9453 12.9062 16.5234 14.3281 14.7734 14.3281ZM7.82813 2.95312C7.17188 2.95312 6.57031 3.5 6.57031 4.21094V11.1562C6.57031 11.8125 7.11719 12.4141 7.82813 12.4141H14.7734C15.4297 12.4141 16.0313 11.8672 16.0313 11.1562V4.21094C16.0313 3.55469 15.4844 2.95312 14.7734 2.95312H7.82813Z" fill="white"/>
<path d="M35.1719 14.3281H28.2266C26.4766 14.3281 25.0547 12.9062 25.0547 11.1562V4.21094C25.0547 2.46094 26.4766 1.03906 28.2266 1.03906H35.1719C36.9219 1.03906 38.3438 2.46094 38.3438 4.21094V11.1562C38.3438 12.9062 36.9219 14.3281 35.1719 14.3281ZM28.2266 2.95312C27.5703 2.95312 26.9688 3.5 26.9688 4.21094V11.1562C26.9688 11.8125 27.5156 12.4141 28.2266 12.4141H35.1719C35.8281 12.4141 36.4297 11.8672 36.4297 11.1562V4.21094C36.4297 3.55469 35.8828 2.95312 35.1719 2.95312H28.2266Z" fill="white"/>
<path d="M14.7734 33.9609H7.82813C6.07813 33.9609 4.65625 32.5391 4.65625 30.7891V23.8438C4.65625 22.0938 6.07813 20.6719 7.82813 20.6719H14.7734C16.5234 20.6719 17.9453 22.0938 17.9453 23.8438V30.7891C17.9453 32.5391 16.5234 33.9609 14.7734 33.9609ZM7.82813 22.5859C7.17188 22.5859 6.57031 23.1328 6.57031 23.8438V30.7891C6.57031 31.4453 7.11719 32.0469 7.82813 32.0469H14.7734C15.4297 32.0469 16.0313 31.5 16.0313 30.7891V23.8438C16.0313 23.1875 15.4844 22.5859 14.7734 22.5859H7.82813Z" fill="white"/>
<path d="M35.1719 33.9609H28.2266C26.4766 33.9609 25.0547 32.5391 25.0547 30.7891V23.8438C25.0547 22.0938 26.4766 20.6719 28.2266 20.6719H35.1719C36.9219 20.6719 38.3438 22.0938 38.3438 23.8438V30.7891C38.3438 32.5391 36.9219 33.9609 35.1719 33.9609ZM28.2266 22.5859C27.5703 22.5859 26.9688 23.1328 26.9688 23.8438V30.7891C26.9688 31.4453 27.5156 32.0469 28.2266 32.0469H35.1719C35.8281 32.0469 36.4297 31.5 36.4297 30.7891V23.8438C36.4297 23.1875 35.8828 22.5859 35.1719 22.5859H28.2266Z" fill="white"/>
</g>
<defs>
<filter id="filter0_d_121_54028" x="0" y="0" width="43" height="43" filterUnits="userSpaceOnUse" color-interpolation-filters="sRGB">
<feFlood flood-opacity="0" result="BackgroundImageFix"/>
<feColorMatrix in="SourceAlpha" type="matrix" values="0 0 0 0 0 0 0 0 0 0 0 0 0 0 0 0 0 0 127 0" result="hardAlpha"/>
<feOffset dy="4"/>
<feGaussianBlur stdDeviation="2"/>
<feComposite in2="hardAlpha" operator="out"/>
<feColorMatrix type="matrix" values="0 0 0 0 0 0 0 0 0 0 0 0 0 0 0 0 0 0 0.25 0"/>
<feBlend mode="normal" in2="BackgroundImageFix" result="effect1_dropShadow_121_54028"/>
<feBlend mode="normal" in="SourceGraphic" in2="effect1_dropShadow_121_54028" result="shape"/>
</filter>
</defs>
</svg>
