<svg width="178" height="44" viewBox="0 0 178 44" fill="none" xmlns="http://www.w3.org/2000/svg">
<g clip-path="url(#clip0_121_53807)" filter="url(#filter0_d_121_53807)">
<path d="M67.0052 25.4497H64.213V10.1011H69.9476C70.64 10.0906 71.3262 10.2332 71.9581 10.5187C72.539 10.7831 73.0619 11.1601 73.4968 11.6281C73.9218 12.084 74.2581 12.6155 74.4885 13.1956C74.8913 14.1897 74.9529 15.2904 74.664 16.3237C74.5458 16.7502 74.3684 17.1576 74.1362 17.5339C73.6409 18.3293 72.9357 18.9708 72.0992 19.3864C72.8457 20.409 73.588 21.4217 74.3265 22.4242C75.0644 23.4268 75.811 24.4354 76.5655 25.4497H74.3721C74.1922 25.4455 74.0142 25.4126 73.8436 25.3525C73.6237 25.2796 73.4136 25.1772 73.2202 25.0481C72.9806 24.8923 72.7552 24.7146 72.5482 24.5173C72.2957 24.2691 72.069 23.9957 71.8719 23.7017L69.0902 19.9314H67.0052V25.4497ZM70.0339 17.1057C70.3006 17.1042 70.5636 17.0438 70.8051 16.9288C71.0465 16.8187 71.2646 16.6618 71.4457 16.467C71.6286 16.2724 71.7752 16.0458 71.8774 15.7983C71.9828 15.5499 72.037 15.2827 72.037 15.0126C72.0376 14.738 71.9834 14.4661 71.8774 14.2129C71.774 13.966 71.628 13.7395 71.4457 13.5442C71.2639 13.3504 71.0459 13.1941 70.8051 13.0842C70.5642 12.9684 70.3006 12.9079 70.0339 12.9072H67.0052V17.0952L70.0339 17.1057Z" fill="white"/>
<path d="M84.0242 10.1006H86.5558L93.2421 25.4497H91.5008C91.1164 25.4531 90.7382 25.3456 90.4124 25.1401C90.0865 24.9348 89.8297 24.6358 89.6751 24.2819L88.7665 22.2047H81.8136L80.9179 24.2819C80.8446 24.4548 80.7424 24.6144 80.6174 24.7543C80.4892 24.8966 80.342 25.0204 80.1806 25.1223C80.0162 25.2274 79.8375 25.3084 79.6509 25.363C79.4655 25.4205 79.2727 25.4497 79.0793 25.4497H77.3386L84.0242 10.1006ZM83.0522 19.3862H87.5284L85.5315 14.7381C85.4459 14.5498 85.383 14.3519 85.3436 14.1489C85.3122 13.9719 85.2913 13.8339 85.2839 13.742C85.2709 13.8805 85.2494 14.0181 85.221 14.1542C85.1804 14.3541 85.1219 14.5498 85.0443 14.7381L83.0522 19.3862Z" fill="white"/>
<path d="M101.28 25.4497H98.4716V18.9475C98.4753 18.7347 98.4241 18.5245 98.3231 18.3373C98.2024 18.1266 98.0712 17.9228 97.9283 17.7269L92.3157 10.1012H94.4598C94.8904 10.0919 95.3166 10.1873 95.7028 10.379C96.0644 10.5655 96.3712 10.8421 96.5941 11.1822L99.6136 15.2852C99.7016 15.4041 99.7676 15.5385 99.8076 15.6814C99.8427 15.816 99.8618 15.9027 99.8686 15.9381C99.8821 15.8528 99.9024 15.7688 99.9289 15.6868C99.9714 15.5406 100.042 15.4042 100.136 15.2852L103.145 11.1929C103.363 10.8446 103.671 10.5617 104.037 10.3736C104.423 10.1854 104.849 10.0921 105.278 10.1012H107.449L101.821 17.7374C101.737 17.8525 101.66 17.9568 101.599 18.0542C101.535 18.1453 101.477 18.2398 101.423 18.3373C101.374 18.429 101.338 18.5265 101.312 18.6274C101.286 18.7321 101.274 18.8396 101.275 18.9475L101.28 25.4497Z" fill="white"/>
<path d="M122.889 18.0819V23.9787C122.543 24.2985 122.153 24.5671 121.731 24.7765C121.299 24.9902 120.846 25.1588 120.379 25.2795C119.888 25.4048 119.389 25.4903 118.884 25.5355C118.371 25.5814 117.848 25.6044 117.319 25.6044C116.267 25.6118 115.224 25.402 114.258 24.9884C113.325 24.5927 112.476 24.0235 111.757 23.3116C111.041 22.5991 110.469 21.756 110.073 20.8283C109.665 19.8623 109.455 18.8252 109.455 17.7775C109.455 16.7298 109.665 15.6927 110.073 14.7267C110.47 13.7959 111.045 12.9504 111.764 12.2363C112.484 11.5248 113.332 10.9558 114.265 10.5596C116.202 9.75173 118.381 9.74029 120.326 10.5277C121.243 10.9087 122.078 11.4577 122.79 12.1463L122.684 12.2434C122.558 12.3699 122.411 12.4728 122.25 12.5469C122.084 12.6161 121.906 12.6503 121.728 12.6475C121.481 12.6492 121.241 12.5745 121.039 12.4339C120.508 12.0704 119.927 11.7845 119.313 11.5851C118.671 11.3794 118 11.2769 117.326 11.2815C116.74 11.2792 116.156 11.3562 115.592 11.5109C115.046 11.6589 114.522 11.8797 114.036 12.1675C113.555 12.4504 113.11 12.7912 112.714 13.1823C112.316 13.5743 111.974 14.0164 111.694 14.4972C111.409 14.9859 111.187 15.5083 111.034 16.0522C110.875 16.6133 110.796 17.1937 110.797 17.7766C110.796 18.3605 110.877 18.9417 111.04 19.5027C111.356 20.5916 111.951 21.58 112.767 22.3709C113.173 22.7638 113.625 23.1053 114.114 23.3875C114.612 23.6741 115.146 23.8948 115.7 24.0441C116.267 24.1983 116.854 24.2755 117.444 24.2735C118.172 24.2759 118.9 24.1774 119.601 23.9805C120.299 23.7822 120.964 23.4849 121.576 23.0981V19.4162H120.213C120.037 19.4194 119.864 19.3862 119.702 19.3191C119.54 19.252 119.394 19.1522 119.273 19.0262C119.162 18.9067 119.075 18.767 119.016 18.615C118.956 18.4577 118.926 18.2908 118.926 18.1226V18.0802L122.889 18.0819Z" fill="white"/>
<path d="M128.719 25.4498H127.367V10.1007H132.792C133.376 10.0961 133.953 10.2106 134.491 10.4369C135.004 10.6548 135.472 10.9676 135.867 11.3588C136.263 11.7506 136.579 12.2144 136.797 12.7247C137.026 13.2523 137.141 13.8209 137.139 14.3949C137.139 14.9176 137.047 15.4362 136.867 15.9272C136.694 16.4075 136.442 16.8565 136.122 17.256C135.804 17.6477 135.416 17.9765 134.976 18.2255C134.528 18.4794 134.031 18.6379 133.517 18.6909L138.64 25.4498H138.003C137.261 25.4498 136.711 25.1774 136.36 24.6377L131.852 18.6909H128.719V25.4498ZM128.719 11.4384V17.3516H132.792C133.191 17.354 133.588 17.2759 133.955 17.1215C134.311 16.9729 134.633 16.7578 134.906 16.4881C135.179 16.2174 135.397 15.8979 135.549 15.5469C135.708 15.1835 135.79 14.7911 135.786 14.3949C135.79 14.0011 135.708 13.611 135.549 13.2502C135.24 12.5422 134.67 11.9781 133.955 11.6737C133.588 11.5161 133.193 11.4359 132.792 11.4384H128.719Z" fill="white"/>
<path d="M143.426 25.4497H142.191V10.1006H143.426V25.4497Z" fill="white"/>
<path d="M148.677 25.4496V10.1006H154.301C155.657 10.0953 156.988 10.4578 158.155 11.1499C159.289 11.8215 160.235 12.7705 160.905 13.9082C161.593 15.0819 161.956 16.4187 161.956 17.7804C161.956 19.1421 161.593 20.4791 160.905 21.6527C160.571 22.2187 160.168 22.7407 159.704 23.2061C158.77 24.1451 157.607 24.8237 156.333 25.1754C155.672 25.3603 154.987 25.4525 154.301 25.4496H148.677ZM154.301 24.1102C155.149 24.117 155.988 23.9478 156.769 23.613C157.516 23.2922 158.196 22.8324 158.774 22.2578C159.351 21.6809 159.811 20.997 160.13 20.2442C160.457 19.4643 160.625 18.6266 160.625 17.7804C160.625 16.9342 160.457 16.0966 160.13 15.3167C159.811 14.5627 159.351 13.8772 158.774 13.2978C158.198 12.721 157.516 12.2592 156.769 11.9371C155.988 11.6019 155.149 11.432 154.301 11.4382H150.01V24.1102H154.301Z" fill="white"/>
<path d="M171.636 12.1273C171.472 12.0142 171.326 11.9065 171.203 11.8075C170.944 11.6 170.643 11.4538 170.319 11.38C170.086 11.3326 169.848 11.3112 169.611 11.3165C169.21 11.3142 168.809 11.3848 168.434 11.5249C168.077 11.6559 167.745 11.8458 167.452 12.0867C167.178 12.314 166.95 12.5939 166.785 12.9099C166.623 13.2161 166.537 13.5578 166.538 13.9044C166.528 14.2393 166.58 14.5732 166.694 14.8884C166.808 15.1573 166.991 15.3912 167.225 15.5668C167.523 15.793 167.851 15.9769 168.2 16.1127C168.602 16.2799 169.101 16.4671 169.694 16.6744C170.009 16.7921 170.304 16.8993 170.578 16.9959C170.849 17.0948 171.11 17.1973 171.349 17.2996C171.582 17.3977 171.809 17.5081 172.029 17.63C172.24 17.749 172.442 17.8831 172.634 18.0311C173.116 18.3904 173.485 18.8811 173.695 19.4443C173.903 20.0318 174.006 20.6513 174 21.2744C174.009 21.8994 173.873 22.518 173.603 23.0816C173.347 23.6067 172.983 24.0715 172.534 24.4454C172.066 24.8295 171.53 25.1214 170.953 25.3057C170.327 25.5096 169.672 25.6104 169.013 25.6043C167.679 25.6043 166.554 25.2086 165.64 24.417C165.411 24.2082 165.197 23.9814 165.003 23.7388C164.848 23.5432 164.706 23.3372 164.581 23.1223L164.74 23.0268C164.944 22.9015 165.176 22.8314 165.415 22.8237C165.581 22.8229 165.747 22.8462 165.908 22.8926C166.066 22.9402 166.21 23.0271 166.326 23.1452C166.571 23.3787 166.839 23.5881 167.124 23.7706C167.335 23.9029 167.562 24.0108 167.797 24.0921C167.996 24.1567 168.201 24.1975 168.408 24.214C168.604 24.2281 168.805 24.2387 169.013 24.2458C169.448 24.2596 169.882 24.2108 170.303 24.1009C170.722 23.9986 171.117 23.8188 171.47 23.571C171.818 23.3249 172.107 23.0052 172.317 22.6347C172.545 22.2194 172.658 21.7512 172.645 21.278C172.665 20.7937 172.578 20.3111 172.388 19.8648C172.227 19.5244 171.983 19.229 171.68 19.0044C171.35 18.7693 170.987 18.5837 170.603 18.4533C170.189 18.3061 169.743 18.14 169.265 17.9551C168.658 17.7131 168.105 17.487 167.605 17.2821C167.146 17.0985 166.717 16.8517 166.326 16.5489C165.974 16.27 165.691 15.9132 165.5 15.5067C165.286 14.9999 165.186 14.4523 165.206 13.9027C165.2 13.3363 165.335 12.7771 165.603 12.2775C165.86 11.7999 166.207 11.3765 166.626 11.0302C167.047 10.6833 167.526 10.4119 168.041 10.2283C168.546 10.0439 169.081 9.94823 169.619 9.94563C170.035 9.94038 170.45 9.99993 170.847 10.1223C171.199 10.2322 171.536 10.3829 171.852 10.5709C172.148 10.7466 172.425 10.9526 172.678 11.1857C172.923 11.4143 173.15 11.6392 173.358 11.8605L173.025 12.0955C172.935 12.1611 172.837 12.2134 172.731 12.2509C172.601 12.2928 172.465 12.3125 172.328 12.3093C172.084 12.3178 171.844 12.2545 171.636 12.1273Z" fill="white"/>
<path d="M59.6784 17.2422V23.676C59.307 24.05 58.8844 24.3705 58.4243 24.6282C57.9752 24.8789 57.4997 25.079 57.0068 25.2247C56.5041 25.3721 55.9887 25.4722 55.4673 25.5239C54.9311 25.5785 54.3924 25.6057 53.8534 25.6052C52.8042 25.6136 51.7646 25.4063 50.799 24.9964C49.8675 24.5997 49.0189 24.0318 48.2975 23.322C47.5801 22.609 47.007 21.7648 46.609 20.8353C46.1948 19.8703 45.9848 18.8301 45.9925 17.7802C45.9846 16.3907 46.3518 15.0246 47.0554 13.8262C47.4001 13.2452 47.8168 12.7099 48.2957 12.2332C49.2595 11.2744 50.456 10.5822 51.7681 10.2243C52.4479 10.0371 53.1501 9.94368 53.855 9.94634C54.4218 9.94547 54.9864 10.0102 55.5381 10.1393C56.0882 10.2671 56.6229 10.4541 57.1327 10.6967C57.6457 10.9454 58.1336 11.2417 58.5906 11.5818C59.0581 11.9274 59.4924 12.3149 59.8897 12.7394L59.2441 13.3925C59.0618 13.5924 58.8382 13.7505 58.5887 13.856C58.3387 13.9614 58.0695 14.0115 57.7985 14.0032C57.4073 14.0064 57.0241 13.8869 56.704 13.6616C56.2957 13.3812 55.8495 13.1607 55.3787 13.0066C54.889 12.848 54.377 12.7686 53.8622 12.7712C53.1923 12.7688 52.529 12.9037 51.9134 13.1677C50.7016 13.6734 49.7315 14.6262 49.2046 15.828C48.9359 16.4417 48.7989 17.1049 48.8024 17.7749C48.7971 18.4564 48.9397 19.1309 49.2204 19.7519C49.6342 20.6614 50.3012 21.4327 51.142 21.9734C51.9827 22.5142 52.9614 22.8018 53.9613 22.8016C54.3024 22.7936 54.6427 22.7646 54.9801 22.7149C55.2986 22.6671 55.6141 22.5996 55.9244 22.5131C56.2488 22.4237 56.5593 22.2902 56.8474 22.1167V19.9591L55.9616 19.9432C55.6956 19.9442 55.4326 19.8874 55.1909 19.7767C54.9549 19.6616 54.7642 19.471 54.6488 19.2352C54.4921 18.8803 54.4222 18.4932 54.4451 18.1059V17.2474L59.6784 17.2422Z" fill="white"/>
<path d="M39.7069 20.2838C40.963 10.4241 34.021 1.40876 24.2014 0.147447C14.3817 -1.11387 5.40298 5.85651 4.14685 15.7163C2.89066 25.5759 9.83266 34.5913 19.6523 35.8526C29.472 37.1138 38.4507 30.1435 39.7069 20.2838Z" fill="white"/>
<path d="M22.5911 17.7167V19.4421H26.3538V22.3278H22.6175V22.3175C22.5176 22.3175 22.4137 22.3278 22.3138 22.3278C21.7588 22.3294 21.2091 22.2186 20.6974 22.0024C19.954 21.6866 19.317 21.1622 18.863 20.492C18.3055 19.6624 18.0638 18.6591 18.1824 17.6653C18.3009 16.6718 18.7717 15.754 19.5085 15.0801C20.2455 14.4063 21.1994 14.0213 22.1957 13.9954C23.1922 13.9696 24.1646 14.3047 24.9352 14.9395H32.273C32.1792 14.6448 32.0693 14.3541 31.9531 14.0717C31.217 12.321 30.0221 10.8036 28.4954 9.68072C26.9688 8.55782 25.1674 7.8715 23.2832 7.69492C21.3988 7.51829 19.5021 7.85789 17.7949 8.67768C16.0875 9.4974 14.6334 10.7666 13.5875 12.3503C12.5415 13.9338 11.9427 15.7726 11.8548 17.6706C11.7669 19.5689 12.1932 21.4554 13.0883 23.1295C13.9834 24.8037 15.3137 26.2029 16.938 27.1782C18.5622 28.1536 20.4193 28.6685 22.3118 28.6683H32.7072V17.7126L22.5911 17.7167ZM26.3538 26.9266H22.8886C22.7582 26.9266 22.6236 26.9409 22.481 26.943H22.1794C20.677 26.9218 19.2054 26.5125 17.9064 25.7543C16.6074 24.9962 15.5249 23.9149 14.763 22.6146C14.0012 21.3143 13.5859 19.8388 13.557 18.3304C13.5281 16.8221 13.8867 15.3318 14.5982 14.0031C15.3097 12.6743 16.3501 11.552 17.6192 10.7442C18.8881 9.93664 20.3429 9.47081 21.8433 9.39171C23.3438 9.31273 24.8392 9.62295 26.1855 10.2929C27.5317 10.9627 28.6833 11.9696 29.5294 13.2162H25.4977C24.7309 12.7195 23.8593 12.409 22.9521 12.3096C22.045 12.2101 21.1273 12.3244 20.2717 12.6433C19.4163 12.9623 18.6466 13.4771 18.024 14.1468C17.4011 14.8166 16.9426 15.6229 16.6844 16.5017C16.4263 17.3806 16.3758 18.3078 16.5369 19.2097C16.698 20.1115 17.0663 20.9632 17.6126 21.6973C18.1589 22.4312 18.8679 23.0272 19.6837 23.438C20.4994 23.8487 21.3992 24.0629 22.3118 24.0634H26.3538V26.9266ZM31.0053 26.943H28.0741L28.0904 26.9327H28.0741V24.0673H31.0053V26.943ZM31.0053 22.3318H28.0741V19.4461H31.0053V22.3318Z" fill="white"/>
<path d="M22.0835 17.1718V18.8971H25.8482V21.7828H22.108V21.7727C22.0081 21.7727 21.9041 21.7828 21.8063 21.7828C21.1258 21.7841 20.4555 21.6166 19.855 21.2953C19.2544 20.974 18.7422 20.5087 18.3636 19.9409C17.9791 19.3655 17.7427 18.7032 17.6758 18.0134C17.609 17.3236 17.7136 16.628 17.9804 15.9889C18.2944 15.2415 18.8176 14.6016 19.4868 14.1469C20.0589 13.7596 20.7183 13.5215 21.4052 13.4543C22.092 13.3872 22.7847 13.493 23.4207 13.7621C23.7878 13.9171 24.131 14.1238 24.4398 14.3762H31.7778C31.6819 14.0813 31.5739 13.7908 31.4577 13.5084C30.7191 11.7608 29.5229 10.2467 27.996 9.12707C26.4692 8.00733 24.6688 7.32392 22.7862 7.14913C20.9035 6.97435 19.0088 7.31495 17.3035 8.13461C15.5981 8.95433 14.1457 10.2225 13.1005 11.8045C12.0553 13.3865 11.4565 15.2232 11.3675 17.1195C11.2787 19.0158 11.7029 20.9009 12.5953 22.5745C13.4877 24.2481 14.815 25.6477 16.436 26.6247C18.0572 27.6017 19.9115 28.1196 21.8023 28.1233H32.1976V17.1616L22.0835 17.1718ZM25.8482 26.3816H22.3831C22.2507 26.3816 22.1182 26.3959 21.9756 26.398H21.6799C20.1771 26.379 18.7044 25.9715 17.404 25.2147C16.1037 24.4578 15.0194 23.3774 14.256 22.0774C13.4926 20.7774 13.0757 19.3019 13.0455 17.793C13.0153 16.2841 13.3729 14.793 14.0836 13.4633C14.7944 12.1336 15.8345 11.0103 17.1035 10.2017C18.3727 9.39308 19.8278 8.92638 21.3288 8.84678C22.8297 8.76718 24.3257 9.07735 25.6725 9.74728C27.0193 10.4171 28.1715 11.4242 29.0179 12.6713H24.9901C24.2238 12.1707 23.3518 11.8567 22.4432 11.7543C21.5347 11.652 20.615 11.7641 19.7573 12.0817C18.8996 12.3994 18.1275 12.9138 17.5028 13.584C16.878 14.2541 16.4179 15.0615 16.1589 15.9419C15.8999 16.8222 15.8491 17.7512 16.0109 18.6546C16.1726 19.558 16.5423 20.411 17.0904 21.1457C17.6384 21.8804 18.3499 22.4763 19.1679 22.8862C19.9861 23.296 20.8881 23.5082 21.8023 23.5061H25.8442L25.8482 26.3816ZM30.4998 26.398H27.5687L27.5828 26.3878H27.5687V23.5061H30.4998V26.398ZM30.4998 21.7869H27.5687V18.9012H30.4998V21.7869Z" fill="#212B36"/>
<path d="M25.8483 23.5088H27.5687V24.3294H25.8483V23.5088Z" fill="white"/>
<path d="M24.4562 18.8977H25.8483V19.7183H27.5667V18.8977H28.8283V18.8955H24.4562V18.8977Z" fill="white"/>
</g>
<defs>
<filter id="filter0_d_121_53807" x="0" y="0" width="178" height="44" filterUnits="userSpaceOnUse" color-interpolation-filters="sRGB">
<feFlood flood-opacity="0" result="BackgroundImageFix"/>
<feColorMatrix in="SourceAlpha" type="matrix" values="0 0 0 0 0 0 0 0 0 0 0 0 0 0 0 0 0 0 127 0" result="hardAlpha"/>
<feOffset dy="4"/>
<feGaussianBlur stdDeviation="2"/>
<feComposite in2="hardAlpha" operator="out"/>
<feColorMatrix type="matrix" values="0 0 0 0 0 0 0 0 0 0 0 0 0 0 0 0 0 0 0.25 0"/>
<feBlend mode="normal" in2="BackgroundImageFix" result="effect1_dropShadow_121_53807"/>
<feBlend mode="normal" in="SourceGraphic" in2="effect1_dropShadow_121_53807" result="shape"/>
</filter>
<clipPath id="clip0_121_53807">
<rect width="170" height="36" fill="white" transform="translate(4)"/>
</clipPath>
</defs>
</svg>
