<svg width="43" height="36" viewBox="0 0 43 36" fill="none" xmlns="http://www.w3.org/2000/svg">
<g filter="url(#filter0_d_121_54062)">
<path d="M21.5 7.875C12.2031 7.875 4.65625 16.0781 4.65625 26.1406C4.65625 26.6875 5.09375 27.125 5.64062 27.125H37.3594C37.9062 27.125 38.3438 26.6875 38.3438 26.1406C38.3438 16.0781 30.7969 7.875 21.5 7.875ZM23.4687 25.2109L21.9922 20.5078C21.8281 20.0156 21.1719 20.0156 21.0078 20.5078L19.5312 25.2109H6.625C7.0625 16.625 13.5703 9.78906 21.5 9.78906C29.4297 9.78906 35.9375 16.625 36.375 25.2109H23.4687Z" fill="white"/>
<path d="M21.5 13.7812C20.9531 13.7812 20.5156 14.2187 20.5156 14.7656V16.1875C20.5156 16.7344 20.9531 17.1719 21.5 17.1719C22.0469 17.1719 22.4844 16.7344 22.4844 16.1875V14.7656C22.4844 14.2187 22.0469 13.7812 21.5 13.7812Z" fill="white"/>
<path d="M29.8672 17.8828L28.9922 18.8125C28.6094 19.1953 28.6094 19.7969 28.9922 20.1797C29.1563 20.3438 29.4297 20.4531 29.6484 20.4531C29.9219 20.4531 30.1406 20.3438 30.3594 20.1797L31.2344 19.25C31.6172 18.8672 31.6172 18.2656 31.2344 17.8828C30.8516 17.5 30.25 17.5 29.8672 17.8828Z" fill="white"/>
<path d="M13.1328 17.8828C12.8047 17.5 12.1484 17.4453 11.7656 17.8281C11.3828 18.1562 11.3281 18.8125 11.7109 19.1953L12.5312 20.125C12.6953 20.3437 12.9687 20.4531 13.2422 20.4531C13.4609 20.4531 13.6797 20.3984 13.8984 20.2344C14.2812 19.9062 14.3359 19.25 13.9531 18.8672L13.1328 17.8828Z" fill="white"/>
</g>
<defs>
<filter id="filter0_d_121_54062" x="0" y="0" width="43" height="43" filterUnits="userSpaceOnUse" color-interpolation-filters="sRGB">
<feFlood flood-opacity="0" result="BackgroundImageFix"/>
<feColorMatrix in="SourceAlpha" type="matrix" values="0 0 0 0 0 0 0 0 0 0 0 0 0 0 0 0 0 0 127 0" result="hardAlpha"/>
<feOffset dy="4"/>
<feGaussianBlur stdDeviation="2"/>
<feComposite in2="hardAlpha" operator="out"/>
<feColorMatrix type="matrix" values="0 0 0 0 0 0 0 0 0 0 0 0 0 0 0 0 0 0 0.25 0"/>
<feBlend mode="normal" in2="BackgroundImageFix" result="effect1_dropShadow_121_54062"/>
<feBlend mode="normal" in="SourceGraphic" in2="effect1_dropShadow_121_54062" result="shape"/>
</filter>
</defs>
</svg>
